<svg version="1" xmlns="http://www.w3.org/2000/svg" width="1346.667" height="1346.667" viewBox="0 0 1010.000000 1010.000000"><path d="M475.5 60.1c-13.5 1.5-30.5 4-40.5 6-15.7 3.1-23.3 4.8-27 5.9-1.9.5-9.9 2.8-17.8 5-26.1 7.4-62 22.1-83.2 34.1-3 1.7-7.3 4.1-9.5 5.4-33 18.6-66.2 44-95 72.9-10.5 10.5-21.9 22.7-25.5 27.1-3.5 4.4-6.7 8.2-7 8.5-1.4 1.3-13.4 17.6-19.6 26.5-16.9 24.5-29.1 46.3-42.3 75.8C94.8 357.1 83 397.6 77.6 432c-3.3 21.2-4.6 31.5-4.6 37.7 0 3.6-.4 5.3-1.2 5.3-3.3-.1-34.9-23.6-55.1-41-6.2-5.4-12.4-10.1-13.6-10.5-2.2-.7-2.1-.2 2 7.1 15.7 28.6 33.6 52.9 53.4 72.4 5.8 5.8 11.3 11.7 12.1 13.2.9 1.7 1.4 5.8 1.4 11.5 0 9.8 3 36.7 6 53.8 5.9 34.3 15.8 67.5 30.2 101.5 5.5 12.8 20.8 42.4 27.3 52.5 1.7 2.7 4.5 7.2 6.1 9.8 6.3 10.3 3.9 11.5 22.4-11.8 31.2-39.3 52.5-66.2 70.5-88.9l18-22.8 4.5.7c15.3 2.3 57 22.8 90.6 44.6 29.8 19.3 54.5 31.3 84.9 41.2 10.9 3.6 33.2 8.9 37.5 9 1.9 0 7.8-1.1 13.1-2.6 14.1-3.8 21.9-4.7 47-5.4 16.5-.4 22.8-.3 23.3.6.5.7-.1 1.1-1.5 1.1-3.8 0-16.1 4.1-23.3 7.7-7.3 3.7-16.6 10.2-16.6 11.6 0 .5 3 4.2 6.6 8.2l6.6 7.4 6.5-5.4c12.5-10.3 26.6-15.2 46.3-16.2l11.5-.6 8 4.1c15.2 7.7 52.5 31.8 52.5 34 0 .4-4.2 1.5-9.3 2.5-21.8 4.2-45.4 12.2-67.5 22.9-13.2 6.4-16.4 9.1-4.1 3.4 22.1-10.1 51.1-15.6 82.7-15.6h15.4l10.6 9.2c11.9 10.3 42.4 39.9 41.8 40.6-.3.2-4.2-.5-8.8-1.7-26.5-6.5-62.5-8.9-84.8-5.7-20.7 3-38.8 8.9-53.2 17.3-3.1 1.8-5.9 3.3-6.1 3.3-.3 0-1.6-2.1-2.9-4.6-3.4-6.9-13.7-17.5-20.4-21.1l-5.7-3.1-5.1 3c-2.8 1.7-6.2 3.9-7.6 5-3.8 3-10.4 11.4-13 16.4-1.2 2.5-2.5 4.4-2.8 4.2-.4-.2-6.3-3.1-13.2-6.5-23.1-11.5-38.8-14.7-72-14.7-32.7-.1-52.6 3.3-86.1 14.4-38 12.6-57.2 17-87.9 20-6.3.6-11.6 1.2-11.7 1.4-.8.7 8.5 7.8 26.5 20.2 53.5 37.1 113.9 61.6 179.7 72.9 25.2 4.3 34.4 5 70.5 4.9 43 0 53-.8 90.1-7.3 24.6-4.2 67-17.5 92.3-28.8 14.7-6.5 43.2-21.6 55.2-29.1 7.2-4.5 13.6-8.2 14.2-8.2.6 0 1.5.6 1.9 1.4.5.8 3.6 1.5 8.4 1.9 7.9.5 15 3.3 23.5 9.1 2.1 1.4 4 2.4 4.2 2.1.3-.2-4.7-5.9-10.9-12.5-6.3-6.7-11.5-12.5-11.6-12.8-.1-.4 3-3.2 6.9-6.2 3.9-3 8.8-6.9 10.9-8.6l3.8-3.2-4.7-.7c-6.9-1-28.5-6-38-8.9l-8.2-2.5-18.4-17.4c-10.2-9.6-24.6-23-32.1-29.7l-13.7-12.2 5.9.7c19.8 2.2 49 8.5 68.3 14.6 16.9 5.4 51.3 13.7 68.6 16.5 14.9 2.4 19.7 2.8 40.9 2.8 23.8.1 33.9-1 43.1-4.5l2.6-.9-3.8-4.3c-2.1-2.3-8.6-9.3-14.4-15.5L889.4 775l-12.2 1.1c-15 1.5-33.3.1-49.7-3.7-44.2-10.2-69-13.8-104.5-15-16.2-.6-49.5.8-53.3 2.1-.7.3-4.6-2.2-8.7-5.6-4.1-3.3-11.8-9.2-17-13.2-5.2-3.9-13.3-10.7-18-15.2-32.8-31-73.2-58.2-125.7-84.4-43.5-21.7-81-36.9-133.2-54l-20.5-6.7 9-1.8c9.2-1.8 15-3.6 31.4-10.1 22.5-8.8 41.9-12 67.3-11.2 10.2.3 20.2 1.2 24.7 2.2 17.7 3.9 35.9 11.8 51 22l8.1 5.5 3.7-2.8c15.1-11.9 39.6-22.3 60.4-25.7 19.5-3.2 50.8-1.3 69.3 4 5.3 1.6 5.4 1.6 7.9 8.3 8.9 23.3 22.6 42.4 42.1 58.8 17.7 14.9 25.1 22.4 25.8 26.3.9 4.6-1.4 9.1-6.8 13-16.2 11.6-18 29.8-4.1 42.9 8.8 8.3 21.7 13.7 41 17.2 13 2.4 21.7 2.5 34.6.6 19.2-2.9 33.7-9.5 41.3-18.8 5.2-6.3 7-11.2 7-18.5-.1-11.1-5.1-18.4-17.4-25.6-8.5-4.9-10.6-12.3-4.8-17.2 1.8-1.4 3.8-2.5 4.5-2.3.7.2 7.7 8.4 15.4 18.3 24.8 31.6 29.5 37.4 30.4 37.4.4.1.6-.5.3-1.3s2-6.5 5.2-12.7c3.1-6.3 6.7-14.1 8.1-17.4 1.3-3.3 2.6-6.5 3-7 .4-.6 1.7-3.9 3-7.5 1.2-3.6 3.3-8.8 4.6-11.6 1.3-2.8 2.4-5.6 2.4-6.2 0-.6 1.8-6.6 4-13.4 2.2-6.8 4-13.2 4-14.3.1-1.1.7-3.8 1.5-6 1.7-4.5 3.5-14.6 4.4-24.4.1-1.7 14.4-15.5 18.4-17.9 1.5-.9 2.7-2 2.7-2.4 0-1.5 23.9-16.5 31.6-19.7 18.6-7.9 20.2-8.8 23-13.1 5.4-8.2 4.3-19.8-3.3-35.8-3.2-6.5-4.2-7.7-7.9-9.3-5.1-2.3-9.6-1.6-19.5 3.1-3.5 1.6-6.9 3-7.6 3-1.2 0-1.8-4.1-2.8-19.5-1.9-27.3-6.6-53.3-16.5-90-9.7-36.1-31.7-83.8-54.8-119-41.9-63.7-101.5-117.4-169.7-153-12.3-6.4-34.2-16.1-50.1-22-33.1-12.4-69.4-20.6-110.4-25-15-1.7-72.6-1.9-86.5-.4zM556.1 88c43.2 4.1 88.7 15.7 126.9 32.2 55.8 24.3 104 58.5 144 102.3 25.4 27.7 48.2 60.7 65 94 7.8 15.5 19.9 43.9 21.6 50.8l.6 2.7-8.3-4.5c-37.4-20.4-92.2-44.9-135.2-60.5-10.9-4-12-4.6-15.1-8.9-6.1-8.3-14.8-10.9-26-7.9-3.6 1-5.3.9-10.2-.6-40.3-12-96.1-24.8-127.4-29.2-67.5-9.5-93.8-11.5-152.5-11.6-23.1 0-48.5.5-56.5 1.1-30 2.3-41 3.3-59 5.2-42.7 4.6-90.7 12.5-141.8 23.5-9 2-16.5 3.4-16.7 3.2-.9-1 22.2-32.7 33.7-46.1 8.5-10 27.2-29 39.3-40.1 40.2-36.7 92.3-67.2 145.7-85.2 35.3-11.9 76.2-19.7 114.3-21.8 10.7-.6 46 .3 57.6 1.4zM427.5 272.6c2.7 2.7 4.4 6.9 5.4 13.5 1.9 11.5 2.7 10.7-10.1 11.2-6.2.3-16 1-21.8 1.5-5.8.6-13.6 1.3-17.5 1.6-13.6 1.2-44.6 5.3-47.1 6.3-.8.3-1.4-3.1-1.8-10.5-1.2-17.2-.3-18 19.9-20.2 25.6-2.6 50-4.5 63.2-4.8 6.3-.2 8.5.2 9.8 1.4zm78.1-.1c27.8 1.8 33.5 2.4 35.3 3.9 2.3 1.8 4.9 8.7 5.6 15l.8 5.9-10.9-.7c-6-.4-26.9-1-46.4-1.2l-35.5-.5-.3-7.1c-.6-13.7 2.8-16.8 18.4-16.8 5.5 0 20.3.7 33 1.5zm81.8 9.1c15.6 2.4 42.7 7.4 46.9 8.6 2.1.7 4.7 2.3 5.8 3.7l2 2.5-6.3 2.2c-4.1 1.5-7.2 3.4-9 5.6-1.8 2.1-3 2.9-3.5 2.2-.5-.6-3-1.4-5.8-1.7-2.7-.3-10.2-1.3-16.5-2.1-6.3-.8-14.6-1.8-18.5-2.1-15.8-1.3-15.3-1.1-15.7-6.3-.5-6.4 0-8.7 2.8-11.7 2.7-3 4.2-3 17.8-.9zm-284.9 4.6c3.9 1.8 6.3 7.5 7.1 16.7.6 7.1.5 8.1-1 8.1-.9 0-1.6.5-1.6 1.1 0 .6-.8.8-1.8.5-1-.4-3.8-.2-6.3.3-2.4.5-10.5 2.1-17.9 3.5-7.4 1.5-16.6 3.5-20.5 4.5-3.8 1.1-9.6 2.5-12.7 3.2-3.2.7-5.8 1.5-5.8 1.8 0 .3-1.7.7-3.8.8-2 .2-4.6.7-5.7 1.2-3.8 1.6-9.6 3.3-10.1 2.9-.2-.3-.9-4.1-1.5-8.6-1-7.8-1-8.5 1.3-13 3-6.1 6.7-7.9 27.3-13.3 18.1-4.7 44.9-10.7 48.2-10.8 1.2-.1 3.4.4 4.8 1.1zM191 319.8c2.9 2.9 6 11.4 6 16.2 0 2.4-.6 2.8-7.7 5-4.3 1.2-9.1 2.8-10.8 3.5-1.6.7-4.1 1.6-5.5 2-2.6.7-6.3 2.1-9.2 3.6-1 .5-2.5.9-3.3.9-1.4 0-5.3 1.8-6.5 3-.3.3-1.6.7-3 .8-1.4.2-2.9.8-3.5 1.2-.5.4-3 1.4-5.5 2.1-2.5.7-4.7 1.6-5 1.9-.3.3-3.3 1.7-6.7 3.2-5.5 2.3-6.3 2.4-6.3 1 .1-.9 2.4-7.5 5.3-14.6l5.2-12.9 10-4.4c5.5-2.5 15.2-6.4 21.5-8.9 6.3-2.4 12.4-4.9 13.5-5.4 4.1-1.8 8.5-1.1 11.5 1.8zm306 .2c0 .5-.4 1-1 1-.5 0-1-.5-1-1 0-.6.5-1 1-1 .6 0 1 .4 1 1zm-.4 9c3.3 4.9 3.5 6 4.2 25 .4 9.1 1 17 1.4 17.5.4.7-.7.9-3 .7-2.1-.2-11.8.4-21.7 1.2-9.9.9-19.2 1.6-20.7 1.6H454v-47.7l4.8-.6c2.6-.4 10.3-.9 17.2-1.3 6.9-.4 12.6-.8 12.8-.9.1-.1 1.4 0 2.8.3 1.5.3 3.5 2 5 4.2zm49.8-2.4c.3.9.6 11 .6 22.5V370h-6.3c-3.5 0-9.8.3-14 .6l-7.7.7V353c0-14.7.3-18.9 1.6-21.6.9-1.9 2.1-3.4 2.6-3.4s.7-.4.3-.9c-.8-1.3 2.5-1.8 13.1-2 7.5-.1 9.3.2 9.8 1.5zm22.6-.6c0 .6 2.7 1 6.2 1 3.4 0 11.4.5 17.7 1.2 16.3 1.6 16.9 2.6 17.4 28.1l.2 15.6-14.5-.5c-8-.2-17.8-.7-21.7-1l-7.3-.6v-22.4c0-14.3.4-22.4 1-22.4s1 .4 1 1zm204.5 3.6c22.6 8.4 33.6 12.9 34.6 14 .6.7 1.3 3.1 1.6 5.3l.5 4-12.8-4.5c-14.6-5.2-19.1-6.4-19.8-5.6-.4.3-.6 0-.6-.6 0-.7-.7-1.2-1.5-1.2-2.2 0-14.8-4.1-15.9-5.1-.6-.5-1.8-.9-2.8-.9-1 0-1.8-.3-1.7-.8.1-1.1 8.2-7 9.9-7.1.8-.1 4.6 1.1 8.5 2.5zM435 339.2c0 5.7.3 16.6.6 24.3l.7 14.1-14.9 2.2c-8.2 1.2-15.1 2.2-15.4 2.2-.3 0-.5-1.7-.6-3.8-.1-2-.7-12.1-1.4-22.3l-1.4-18.7 2.5-3c2-2.6 3.1-3.1 7.1-3.1 2.6-.1 4.9-.4 5.2-.9.2-.4 4.3-.8 9-1l8.6-.2v10.2zm208 14.9V374h-3.9c-2.1 0-5.3-.3-7-.6l-3.1-.7v-16.6c.1-11.5.4-17.1 1.3-18.1 2.4-3 5.9-4.6 9.3-4.2l3.4.4v19.9zm-268.8-13.9c3.6 1.8 5.4 8.7 6.8 25.8.7 9.1 1.6 17.3 2.1 18.2 1 2 1.3 1.8-12.6 4.8-5.5 1.2-13.4 3-17.7 4.1-11.3 2.8-10.8 3.1-10.8-5.4 0-3.9-.7-15.2-1.6-25-.9-9.8-1.4-18-1.1-18.3.3-.3 2.3-.8 4.4-1.1 2.1-.2 4.9-.8 6.3-1.2 2.1-.8 8.1-2.1 15.5-3.4 2.3-.5 6.3.2 8.7 1.5zm411.3 7.5c-.9.8-1.8 1.3-2.1 1-.8-.8 1.9-3.6 2.9-3 .4.2 0 1.1-.8 2zM669 356.2c8.5 9.6 12.4 15.4 13.5 20 .7 2.6.5 2.8-2.1 2.3-1.6-.3-7.2-.9-12.4-1.5s-9.5-1.2-9.6-1.3c-.6-.8 1-28.7 1.7-28.7.4 0 4.4 4.1 8.9 9.2zm-354.6-2c1.2 7.1 3.8 40.5 3.4 44.2-.3 3.7-.5 3.9-5.3 5.3-2.7.9-7 2.1-9.4 2.9-2.5.8-4.6 1.2-4.9 1-.2-.3-1.7-8.3-3.4-17.8-3.3-19.8-3.3-27.1 0-29.9 1.2-.9 2.2-2.4 2.2-3.3 0-.9.8-1.6 2-1.6 1.1 0 2.8-.4 3.8-.9 2.6-1.3 7.5-2.9 9.4-3 1.2-.1 1.9.9 2.2 3.1zm532.7 5.9c10.7 5 26.8 12.7 35.9 17.1 9.1 4.4 21.8 10.4 28.2 13.5 9.4 4.5 11.8 6 12.3 8 .3 1.4.4 2.7.2 3-.3.2-3.5-1.2-7.3-3.2-3.7-2-7.4-3.3-8.1-3.1-.8.3-1.2.2-.9-.2.2-.4-2.8-2.3-6.7-4.1-4-1.9-9.4-4.5-12.2-5.9-11.2-5.5-20.6-9.1-22.2-8.5-1.1.4-1.4.3-.9-.5.7-1.1-6.2-4.7-7.2-3.8-.2.3-1.1-.2-2-1-.9-1-2.4-1.3-4.1-.9-1.6.3-2.1.2-1.3-.3.9-.6.6-1.1-1-1.9-7.3-3.3-10-4.3-10.9-3.8-.5.4-.9.2-.9-.3 0-.6-3.6-2.3-8-3.8-7.2-2.6-8-3.1-8-5.5 0-5.9 2.4-5.4 25.1 5.2zM770 362c4.1 1.1 9.1 2.6 11 3.4 1.9.8 5.3 1.9 7.6 2.5 2.2.6 5.1 2.2 6.5 3.7 2.2 2.4 2.4 3.4 2.8 15.1l.3 12.6-2.7-.7c-3-.8-30.5-6.6-31.1-6.6-.1 0-.5-1.9-.8-4.3-1.5-12.1-2.8-21.5-3.3-24.5-.6-3.8-.5-3.9 9.7-1.2zm-507.7 8.1c3.5 1.6 7.3 10 8.8 19.4.7 4.4 2 12 2.9 17l1.7 9-4.1 1.7c-14.1 5.7-32.1 12.6-32.4 12.3-.3-.3-7.9-43.9-8.5-49-.1-1.1.3-2 .8-2.1.6 0 1.9-.4 3-.9 6-2.3 7.5-3.1 7.5-3.8 0-.5.3-.6.8-.4.4.3 3.4-.5 6.7-1.8 7-2.6 9.5-2.9 12.8-1.4zM825 378c0 .5-.2 1-.4 1-.3 0-.8-.5-1.1-1-.3-.6-.1-1 .4-1 .6 0 1.1.4 1.1 1zm5.4 2.2c-.3.5-1 .5-1.6.2-.6-.4-.8-.2-.5.3.4.6 1.9 1.4 3.3 1.7 1.4.4 4.5 1.5 6.8 2.5 10.2 4.6 17.9 7.1 19.9 6.6 1.5-.4 1.8-.3.9.3-1 .7-.5 1.2 1.8 2.2 5 2.1 6 4.4 6 14.2 0 5.5.4 8.8 1.1 8.8.5 0 .7.5.3 1.1-.4.7-.9.8-1.3.1-.5-.8-13.1-4.6-37.6-11.2-4.4-1.2-8.4-2.6-8.9-3-.4-.5-.5-6.2-.1-12.7l.7-11.9h4.8c2.7 0 4.7.4 4.4.8zm57.3 6.4c-.3.3-1.2.4-1.9.1-.8-.3-.5-.6.6-.6 1.1-.1 1.7.2 1.3.5zm-502.7.8c0 .3-.4.8-1 1.1-.5.3-1 .1-1-.4 0-.6.5-1.1 1-1.1.6 0 1 .2 1 .4zm505.5.6c.3.5.1 1-.4 1-.6 0-1.1-.5-1.1-1 0-.6.2-1 .4-1 .3 0 .8.4 1.1 1zm-679.6 27.3c2.3 13.1 4.1 24.1 4.1 24.6 0 1.5-22.7 12.2-23.1 10.8 0-.1-.3-2.9-.5-6.2-.3-3.2-1-8-1.5-10.5-4.7-21.8-4.8-31.4-.4-36 1.5-1.6 3.1-2.9 3.4-2.8.6.1 3.8-1.1 9.4-3.5 1.5-.7 2.7-1.6 2.7-2.2 0-.5.5-.3 1 .5.4.9 2.7 12.2 4.9 25.3zM873 395.1c0 1.1-.4 1.7-1 1.4-.5-.3-1-1.3-1-2.1s.5-1.4 1-1.4c.6 0 1 .9 1 2.1zm11 7.8c0 1.3 10.7 5.4 12.1 4.5.7-.4.9-.3.5.4-.8 1.4 3 3.5 5 2.8.8-.3 1.3-.2 1 .3-.7 1.1 24.2 13.3 25.5 12.5.5-.3.9-.2.8.3-.1.4 0 1.5.4 2.3.6 1.8 2.6 12.4 2.3 12.7-.1.1-7.6-2.4-16.6-5.7-9.1-3.2-21.3-7.3-27.2-9.1l-10.8-3.3v-7.7c0-6.9.3-8 2.2-9.3 2.5-1.8 4.8-2.1 4.8-.7zm37.5.1c.3.6-.1.7-.9.4-1.8-.7-2.1-1.4-.7-1.4.6 0 1.3.4 1.6 1zm-13.8 8.6c-.3.3-1.2.4-1.9.1-.8-.3-.5-.6.6-.6 1.1-.1 1.7.2 1.3.5zm-754.6 11.5c3.2 3.4 5.2 9.5 6.9 20.3.6 3.8 1.3 7.3 1.6 7.7.2.4.7 2.9 1 5.5.3 2.7 1 5.6 1.5 6.5.5 1 .9 2.2.9 2.7 0 1.1-31 20.5-31.6 19.9-.6-.6-8.2-43.9-8.8-49.7-.3-3-.1-4.8.5-4.4.5.3 2.6-.5 4.7-1.8 6.8-4.2 9.7-5.9 11.5-6.4.9-.4 1.7-1 1.7-1.4 0-.9 2.3-1.7 5.3-1.9 1.1 0 3.2 1.3 4.8 3zm723.4-1.1c.3.5.1 1-.4 1-.6 0-1.1-.5-1.1-1 0-.6.2-1 .4-1 .3 0 .8.4 1.1 1zM631 424c0 .5-.8.7-1.7.4-1-.4.4 1 3.1 3 3.4 2.5 5.6 3.4 7 3 1.5-.4 1.7-.3.7.4-1.5 1.1 8.9 5.3 18 7.3 5.8 1.2 23.9.8 27.2-.6 1.8-.7 1.8-.3 1.2 6.1-1.1 11-5.2 30.3-8.1 37.9-4.4 11.8-6.4 22.9-7.1 38.7l-.6 14.8H479.4c-126.9 0-191.4-.3-191.4-1 0-.6.4-1 .8-1 .5 0 2.1-2.8 3.6-6.1 2.2-5 2.5-6.4 1.4-7.1-1-.8-.9-.9.3-.5 1.1.4 1.9-.5 2.8-3 .9-2.4 1.7-3.3 2.8-2.9 8.8 3.4 37 3.2 49.3-.4 7.3-2.1 21-8.2 23.4-10.4.6-.6 3.2-2.7 5.6-4.6 2.5-1.9 4.7-3.8 4.9-4.3.2-.5 1.9-2.3 3.8-4 5.1-4.6 10.6-12.5 9.7-13.8-.4-.8-.3-.9.4-.5 1.4.8 5.6-7 4.6-8.6-.4-.6-.3-.8.4-.4.5.3 1.3 0 1.5-.6.4-1 .7-1 1.4-.1.5.7 3.1 1.7 5.8 2.3 15.9 3.7 24 4.4 37.7 3.2 17.4-1.4 29.5-5.2 41.7-12.9 6.4-4.1 8.3-5.8 7.3-6.7-.3-.4 0-.4.9-.1 1 .4 3.2-1.4 6.6-5.2C513 436.9 514 436 516 436c1 0 2.6-.3 3.6-.7 1.1-.4 1.5-.3 1.1.4-.8 1.3 5.9 4.7 7.5 3.7.6-.4.8-.3.5.3-.4.7 3.2 2.4 9.4 4.3 9.4 3.1 11.1 3.3 23.8 3.3 13.1-.1 14-.2 24.1-3.8 5.8-2 11.4-3.9 12.5-4.2 1.1-.4 2.2-.9 2.5-1.3.3-.3 3.1-2.1 6.3-3.9 3.2-1.8 6.3-4.2 7-5.2.6-1 2-1.9 2.9-1.9 1 0 1.8-.5 1.8-1 0-.6 1.8-1 3.9-1 2.2 0 4.3-.5 4.6-1 .8-1.3 3.5-1.3 3.5 0zm54 12c-2 1.3-4 1.3-4 0 0-.6 1.2-1 2.8-1 2.1 0 2.4.2 1.2 1zm188.7 18.5c.8.8 1.9 1.2 2.5.9.7-.4.8-.2.4.4-1.5 2.4 22.8 19 26.1 17.8.8-.3 1.1-.1.8.4-1.9 3.1 23.2 5.8 29.8 3.2l2.7-1.2.1 4.8c0 2.6.3 6 .5 7.6l.5 2.9-5.4-.6c-7.6-.7-16-4-40.7-15.6-32.1-15.1-35.7-16.9-34-17.3.8-.3 4.2-1.4 7.5-2.5 7.6-2.6 7.4-2.6 9.2-.8zm-461.4 10.2c-.7.2-1.9.2-2.5 0-.7-.3-.2-.5 1.2-.5s1.9.2 1.3.5zm481.3.8c-2.4 1.8-3.3 1.9-4.2.3-.4-.7-.3-.8.4-.4s2 .2 2.9-.3c2.6-1.5 3.1-1.3.9.4zM395 466c0 .5-.4 1-1 1-.5 0-1-.5-1-1 0-.6.5-1 1-1 .6 0 1 .4 1 1zm530 6c0 .5-.2 1-.4 1-.3 0-.8-.5-1.1-1-.3-.6-.1-1 .4-1 .6 0 1.1.4 1.1 1zm7.7 3.6c-.3.3-1.2.4-1.9.1-.8-.3-.5-.6.6-.6 1.1-.1 1.7.2 1.3.5zm-830 18.1c-1.6 1.5-2.7-1.5-2.6-7l.1-6.2 1.5 6.3c.8 3.5 1.3 6.6 1 6.9zm641.4-5.6c2.5 4.7-1.4 13.4-7.3 16.5-3.8 2-4.8.9-4.8-5.5 0-3.8.5-4.9 4.4-8.7 4.9-5 6-5.3 7.7-2.3zm-384.4 19.5c-.3.3-1.2.4-1.9.1-.8-.3-.5-.6.6-.6 1.1-.1 1.7.2 1.3.5zM275 546c0 .5-.5 1-1.1 1-.5 0-.7-.5-.4-1 .3-.6.8-1 1.1-1 .2 0 .4.4.4 1zm2.7 1.5c-2.3 2.2-3.3 1.8-1.2-.5 1-1.1 2-1.8 2.3-1.6.2.3-.3 1.2-1.1 2.1zm-11.2 8.5c.3.5.1 1-.4 1-.6 0-1.1-.5-1.1-1 0-.6.2-1 .4-1 .3 0 .8.4 1.1 1zm-102 22c.8 1.3-.5 1.3-2.5 0-1.3-.8-1.3-1 .2-1 .9 0 2 .4 2.3 1zm31.5 11.4c0 .3-.4.8-1 1.1-.5.3-1 .1-1-.4 0-.6.5-1.1 1-1.1.6 0 1 .2 1 .4zm87.8 13.6c5.2 0 9.3.3 9 .6-.3.3-5 1.4-10.4 2.5-5.5 1.1-13 3.3-16.7 4.9-3.8 1.6-6.4 2.3-5.9 1.7 7.1-9.6 8.6-10.9 11.5-10.3 1.6.3 7.2.6 12.5.6zM173 614c0 .5-.4 1-1 1-.5 0-1-.5-1-1 0-.6.5-1 1-1 .6 0 1 .4 1 1zm-14 20c0 .5-.2 1-.4 1-.3 0-.8-.5-1.1-1-.3-.6-.1-1 .4-1 .6 0 1.1.4 1.1 1zm-25 8c0 .5-.4 1-1 1-.5 0-1-.5-1-1 0-.6.5-1 1-1 .6 0 1 .4 1 1zm.4 28.6c.3.8.2 1.2-.4.9-.6-.3-1-1-1-1.6 0-1.4.7-1.1 1.4.7zM149 701c.6 1.1.8 2 .6 2-.3 0-1-.9-1.6-2-.6-1.1-.8-2-.6-2 .3 0 1 .9 1.6 2z"/><path d="M339.5 757.6c-27.5 2.1-54.6 6.3-79 12-28.2 6.6-43.5 8.3-61.1 6.5-18.9-1.9-33-6.6-44.4-14.7-3-2.1-5-3.2-4.4-2.4.6.8 4.6 6.2 8.9 12 4.2 5.8 9.1 11.9 10.7 13.6 2 2.2 2.8 3.8 2.4 5-.4 1.1-3.8 5-7.6 8.9-3.8 3.8-6.6 7.3-6.2 7.6 1.2 1.2 12.3 3.7 21.2 4.8 12.2 1.6 34.4 1.3 50-.4 24.3-2.8 48.6-8.3 87.9-19.9 73.2-21.5 147-20.8 193.5 2 3.9 1.9 6.2 2.8 5.1 1.9-3.3-2.7-27.3-14-37.7-17.9-22.1-8.1-47.2-14.1-72.7-17.2-12-1.5-55.7-2.6-66.6-1.8z"/></svg>